<svg data-v-1084b650="" xmlns="http://www.w3.org/2000/svg" viewBox="0 0 300 300"><!----> <!----> <rect data-v-1084b650="" fill="#ffffff" x="0" y="0" width="300px" height="300px" class="logo-background-square"></rect> <!----> <linearGradient data-v-1084b650="" gradientTransform="rotate(25)" id="021cef77-08dd-bb7d-5615-2350e0d2ef4d" x1="0%" y1="0%" x2="100%" y2="0%"><stop data-v-1084b650="" offset="0%" style="stop-color: rgb(0, 102, 120); stop-opacity: 1;"></stop> <stop data-v-1084b650="" offset="100%" style="stop-color: rgb(79, 168, 255); stop-opacity: 1;"></stop></linearGradient> <g data-v-1084b650="" id="fd282680-0626-01ba-9ed3-fd0d3c4901df" fill="url(#021cef77-08dd-bb7d-5615-2350e0d2ef4d)" stroke="none" transform="matrix(0.8499999999999999,0,0,0.8499999999999999,20.332490921020536,21.64511842727663)"><svg xmlns="http://www.w3.org/2000/svg" viewBox="0 0 100 100"><path d="M64.889 34.433c-6.933-8.276-13.482-16.092-13.482-25.93a.56.56 0 1 0-1.121 0c0 9.838-6.547 17.655-13.479 25.93-7.382 8.812-15.015 17.924-15.015 30.135 0 16.055 12.491 28.16 29.054 28.16 16.568 0 29.062-12.105 29.062-28.16 0-12.211-7.635-21.323-15.019-30.135zm-11.78 50.001c-6.943 0 16.391-9.517 2.303-40.012-3.579-6.588 2.35-4.244 4.674-1.854 7.072 7.232 13.201 13.48 13.201 23.254 0 11.492-7.943 18.612-20.178 18.612z"></path></svg></g></svg>