<?xml version="1.0" standalone="no"?><!DOCTYPE svg PUBLIC "-//W3C//DTD SVG 1.1//EN" "http://www.w3.org/Graphics/SVG/1.1/DTD/svg11.dtd"><svg t="1584424754828" class="icon" viewBox="0 0 1024 1024" version="1.1" xmlns="http://www.w3.org/2000/svg" p-id="4574" xmlns:xlink="http://www.w3.org/1999/xlink" width="48" height="48"><defs><style type="text/css">html, * { user-select: text !important; }
</style></defs><path d="M868.7616 245.76a20.48 20.48 0 0 1 0 28.8768l-57.9584 57.9584a20.48 20.48 0 0 1-28.8768-28.8768L839.68 245.76a20.48 20.48 0 0 1 29.0816 0zM983.04 520.8064a20.48 20.48 0 0 1-20.48 20.48h-81.92a20.48 20.48 0 1 1 0-40.96h81.92a20.48 20.48 0 0 1 20.48 20.48zM376.4224 302.4896a20.48 20.48 0 0 1-28.8768 0l-57.9584-57.9584a20.48 20.48 0 0 1 28.8768-28.8768l57.9584 57.9584a20.48 20.48 0 0 1 0 28.8768zM593.92 133.12a20.48 20.48 0 0 1 20.48 20.48v81.92a20.48 20.48 0 1 1-40.96 0v-81.92a20.48 20.48 0 0 1 20.48-20.48zM81.92 849.92H61.44a20.48 20.48 0 0 0 0 40.96h20.48zM921.6 849.92H122.88v40.96h798.72a20.48 20.48 0 0 0 0-40.96zM327.68 460.8a245.76 245.76 0 0 1 245.76 226.304c7.168 0 14.1312-1.024 20.48-1.024h20.48a286.72 286.72 0 1 0-565.248 81.92 309.8624 309.8624 0 0 1 32.768 0h8.192a245.76 245.76 0 0 1 237.568-307.2z" p-id="4575"></path><path d="M593.92 686.08c7.5776 0 14.9504 0 22.528 1.2288a102.4 102.4 0 1 1 193.3312 61.44c9.8304 0 20.48-1.4336 29.9008-1.4336h14.336a143.36 143.36 0 1 0-278.9376-61.44c6.9632 0.8192 13.1072 0.2048 18.8416 0.2048z" p-id="4576"></path><path d="M327.68 460.8a245.76 245.76 0 0 1 245.76 226.304c7.168 0 14.1312-1.024 20.48-1.024h20.48a286.72 286.72 0 1 0-565.248 81.92 309.8624 309.8624 0 0 1 32.768 0h8.192a245.76 245.76 0 0 1 237.568-307.2z" p-id="4577"></path><path d="M737.28 522.24a143.36 143.36 0 0 1-6.144 40.96 143.36 143.36 0 0 1 39.7312 9.8304 184.32 184.32 0 0 0-350.8224-112.0256 255.1808 255.1808 0 0 1 36.6592 20.48A143.36 143.36 0 0 1 737.28 522.24z" p-id="4578"></path></svg>