<?xml version="1.0" standalone="no"?><!DOCTYPE svg PUBLIC "-//W3C//DTD SVG 1.1//EN" "http://www.w3.org/Graphics/SVG/1.1/DTD/svg11.dtd"><svg t="1584424792059" class="icon" viewBox="0 0 1024 1024" version="1.1" xmlns="http://www.w3.org/2000/svg" p-id="6263" xmlns:xlink="http://www.w3.org/1999/xlink" width="48" height="48"><defs><style type="text/css">html, * { user-select: text !important; }
</style></defs><path d="M416 511.616c-17.664 0-32 14.272-32 32l0 448c0 17.6 14.336 32 32 32S448 1009.28 448 991.616l0-448C448 525.888 433.664 511.616 416 511.616zM160 703.616c-17.664 0-32 14.272-32 32l0 256c0 17.6 14.336 32 32 32S192 1009.28 192 991.616l0-256C192 717.888 177.664 703.616 160 703.616zM672 639.616c-17.664 0-32 14.272-32 32l0 320c0 17.6 14.336 32 32 32s32-14.4 32-32l0-320C704 653.888 689.664 639.616 672 639.616zM928 511.616c-17.664 0-32 14.272-32 32l0 448c0 17.6 14.336 32 32 32s32-14.4 32-32l0-448C960 525.888 945.664 511.616 928 511.616zM1002.496 65.728c-6.528-3.136-13.632-3.52-20.48-2.112L800 63.616c-17.664 0-32 14.272-32 32 0 17.6 14.336 32 32 32l109.632 0L605.248 433.472 372.672 201.024c-0.256-0.384-0.32-0.768-0.64-1.024s-0.64-0.384-0.96-0.64L370.624 198.848c-9.088-9.152-22.4-11.264-33.536-6.528C332.608 193.984 328.32 196.352 324.736 200L9.728 516.736c-13.056 13.248-13.056 34.496 0 47.616 13.12 13.12 34.304 13.12 47.36 0l295.36-297.024L587.456 502.4c12.032 12.032 31.36 12.032 43.392 0 0.192-0.128 0.192-0.384 0.384-0.512 0.64-0.64 1.408-0.768 2.048-1.344L960 172.224l0 115.392c0 17.6 14.336 32 32 32S1024 305.28 1024 287.616l0-192C1024 81.6 1014.976 70.144 1002.496 65.728z" p-id="6264"></path></svg>